<svg xmlns="http://www.w3.org/2000/svg" width="1600" height="920" viewBox="0 0 1600 920">
  <defs>
    <style>
      .title { font: 700 34px 'Microsoft YaHei', 'SimSun', sans-serif; fill: #1f2937; }
      .axis { font: 18px 'Microsoft YaHei', 'SimSun', sans-serif; fill: #374151; }
      .label { font: 700 24px 'Microsoft YaHei', 'SimSun', sans-serif; fill: #111827; }
      .value { font: 18px 'Microsoft YaHei', 'SimSun', sans-serif; fill: #111827; }
      .legend { font: 20px 'Microsoft YaHei', 'SimSun', sans-serif; fill: #111827; }
    </style>
  </defs>

  <rect width="1600" height="920" fill="#f8fafc"/>
  <text x="800" y="60" text-anchor="middle" class="title">图3 基线与最坏工况指标对比图</text>

  <rect x="100" y="120" width="640" height="650" rx="24" fill="#ffffff" stroke="#cbd5e1" stroke-width="3"/>
  <text x="420" y="165" text-anchor="middle" class="label">平均吞吐量对比（Mbps）</text>

  <line x1="180" y1="690" x2="660" y2="690" stroke="#475569" stroke-width="3"/>
  <line x1="180" y1="230" x2="180" y2="690" stroke="#475569" stroke-width="3"/>
  <text x="150" y="695" class="axis">0</text>
  <text x="140" y="585" class="axis">20</text>
  <text x="140" y="475" class="axis">40</text>
  <text x="140" y="365" class="axis">60</text>
  <text x="140" y="255" class="axis">80</text>
  <line x1="180" y1="580" x2="660" y2="580" stroke="#e5e7eb" stroke-width="2"/>
  <line x1="180" y1="470" x2="660" y2="470" stroke="#e5e7eb" stroke-width="2"/>
  <line x1="180" y1="360" x2="660" y2="360" stroke="#e5e7eb" stroke-width="2"/>
  <line x1="180" y1="250" x2="660" y2="250" stroke="#e5e7eb" stroke-width="2"/>

  <rect x="230" y="256" width="55" height="434" fill="#60a5fa"/>
  <rect x="305" y="273" width="55" height="417" fill="#f97316"/>
  <text x="295" y="725" text-anchor="middle" class="axis">DL</text>
  <text x="258" y="246" text-anchor="middle" class="value">78.97</text>
  <text x="333" y="263" text-anchor="middle" class="value">75.97</text>

  <rect x="410" y="274" width="55" height="416" fill="#60a5fa"/>
  <rect x="485" y="400" width="55" height="290" fill="#f97316"/>
  <text x="475" y="725" text-anchor="middle" class="axis">UL</text>
  <text x="438" y="264" text-anchor="middle" class="value">75.69</text>
  <text x="513" y="390" text-anchor="middle" class="value">52.62</text>

  <rect x="590" y="284" width="55" height="406" fill="#60a5fa"/>
  <rect x="665" y="412" width="55" height="278" fill="#f97316"/>
  <text x="655" y="725" text-anchor="middle" class="axis">E2E</text>
  <text x="618" y="274" text-anchor="middle" class="value">73.99</text>
  <text x="693" y="402" text-anchor="middle" class="value">50.57</text>

  <rect x="860" y="120" width="640" height="650" rx="24" fill="#ffffff" stroke="#cbd5e1" stroke-width="3"/>
  <text x="1180" y="165" text-anchor="middle" class="label">中断率对比（%）</text>

  <line x1="940" y1="690" x2="1420" y2="690" stroke="#475569" stroke-width="3"/>
  <line x1="940" y1="230" x2="940" y2="690" stroke="#475569" stroke-width="3"/>
  <text x="910" y="695" class="axis">0</text>
  <text x="900" y="598" class="axis">5</text>
  <text x="892" y="506" class="axis">10</text>
  <text x="892" y="414" class="axis">15</text>
  <text x="892" y="322" class="axis">20</text>
  <text x="892" y="230" class="axis">25</text>
  <line x1="940" y1="598" x2="1420" y2="598" stroke="#e5e7eb" stroke-width="2"/>
  <line x1="940" y1="506" x2="1420" y2="506" stroke="#e5e7eb" stroke-width="2"/>
  <line x1="940" y1="414" x2="1420" y2="414" stroke="#e5e7eb" stroke-width="2"/>
  <line x1="940" y1="322" x2="1420" y2="322" stroke="#e5e7eb" stroke-width="2"/>
  <line x1="940" y1="230" x2="1420" y2="230" stroke="#e5e7eb" stroke-width="2"/>

  <rect x="990" y="690" width="55" height="0" fill="#60a5fa"/>
  <rect x="1065" y="609" width="55" height="81" fill="#f97316"/>
  <text x="1055" y="725" text-anchor="middle" class="axis">DL</text>
  <text x="1018" y="680" text-anchor="middle" class="value">0.00</text>
  <text x="1093" y="599" text-anchor="middle" class="value">4.42</text>

  <rect x="1170" y="690" width="55" height="0" fill="#60a5fa"/>
  <rect x="1245" y="309" width="55" height="381" fill="#f97316"/>
  <text x="1235" y="725" text-anchor="middle" class="axis">UL</text>
  <text x="1198" y="680" text-anchor="middle" class="value">0.00</text>
  <text x="1273" y="299" text-anchor="middle" class="value">20.73</text>

  <rect x="1350" y="690" width="55" height="0" fill="#60a5fa"/>
  <rect x="1425" y="292" width="55" height="398" fill="#f97316"/>
  <text x="1415" y="725" text-anchor="middle" class="axis">E2E</text>
  <text x="1378" y="680" text-anchor="middle" class="value">0.00</text>
  <text x="1453" y="282" text-anchor="middle" class="value">21.65</text>

  <rect x="580" y="805" width="26" height="26" fill="#60a5fa"/>
  <text x="620" y="825" class="legend">基线工况</text>
  <rect x="760" y="805" width="26" height="26" fill="#f97316"/>
  <text x="800" y="825" class="legend">最坏工况</text>

  <text x="800" y="875" text-anchor="middle" class="axis">说明：基于现有平台导出的 summary_v7 结果绘制。最坏工况下，上行链路和端到端指标退化更明显，说明该方法能够自动揭示真实瓶颈。</text>
</svg>
